<?xml version="1.0" encoding="UTF-8"?>
<svg width="409px" height="409px" viewBox="0 0 409 409" version="1.1" xmlns="http://www.w3.org/2000/svg" xmlns:xlink="http://www.w3.org/1999/xlink">
    <!-- Generator: Sketch 46.2 (44496) - http://www.bohemiancoding.com/sketch -->
    <title>instagram</title>
    <desc>Created with Sketch.</desc>
    <defs>
        <linearGradient x1="50%" y1="99.7089109%" x2="50%" y2="0.776721582%" id="linearGradient-1">
            <stop stop-color="#E09B3D" offset="0%"></stop>
            <stop stop-color="#C74C4D" offset="30%"></stop>
            <stop stop-color="#C21975" offset="60%"></stop>
            <stop stop-color="#7024C4" offset="100%"></stop>
        </linearGradient>
        <linearGradient x1="50%" y1="146.098873%" x2="50%" y2="-45.1596833%" id="linearGradient-2">
            <stop stop-color="#E09B3D" offset="0%"></stop>
            <stop stop-color="#C74C4D" offset="30%"></stop>
            <stop stop-color="#C21975" offset="60%"></stop>
            <stop stop-color="#7024C4" offset="100%"></stop>
        </linearGradient>
        <linearGradient x1="50%" y1="658.140556%" x2="50%" y2="-140.029283%" id="linearGradient-3">
            <stop stop-color="#E09B3D" offset="0%"></stop>
            <stop stop-color="#C74C4D" offset="30%"></stop>
            <stop stop-color="#C21975" offset="60%"></stop>
            <stop stop-color="#7024C4" offset="100%"></stop>
        </linearGradient>
    </defs>
    <g id="Page-1" stroke="none" stroke-width="1" fill="none" fill-rule="evenodd">
        <g id="instagram" fill-rule="nonzero">
            <path d="M286.65417,0 L121.63008,0 C54.562971,0 0,54.562971 0,121.63008 L0,286.65417 C0,353.721279 54.562971,408.28425 121.63008,408.28425 L286.65417,408.28425 C353.721279,408.28425 408.28425,353.721279 408.28425,286.65417 L408.28425,121.63008 C408.283509,54.562971 353.720538,0 286.65417,0 Z M367.21087,286.65417 C367.21087,331.144034 331.144034,367.21087 286.65417,367.21087 L121.63008,367.21087 C77.1402156,367.21087 41.0733804,331.144034 41.0733804,286.65417 L41.0733804,121.63008 C41.0733804,77.1394746 77.1402156,41.0733804 121.63008,41.0733804 L286.65417,41.0733804 C331.144034,41.0733804 367.21087,77.1394746 367.21087,121.63008 L367.21087,286.65417 L367.21087,286.65417 Z" id="Shape" fill="url(#linearGradient-1)"></path>
            <path d="M204.142125,98.5452899 C145.915937,98.5452899 98.5452899,145.915937 98.5452899,204.141384 C98.5452899,262.366832 145.915937,309.738219 204.142125,309.738219 C262.368313,309.738219 309.73896,262.367572 309.73896,204.141384 C309.73896,145.915196 262.368313,98.5452899 204.142125,98.5452899 Z M204.142125,268.66558 C168.506518,268.66558 139.61867,239.777732 139.61867,204.142125 C139.61867,168.506518 168.507259,139.61867 204.142125,139.61867 C239.777732,139.61867 268.66558,168.506518 268.66558,204.142125 C268.66558,239.776991 239.776991,268.66558 204.142125,268.66558 Z" id="Shape" fill="url(#linearGradient-2)"></path>
            <circle id="Oval" fill="url(#linearGradient-3)" cx="309.94346" cy="99.3380978" r="25.3031703"></circle>
        </g>
    </g>
</svg>